<?xml version="1.0" ?><!DOCTYPE svg  PUBLIC '-//W3C//DTD SVG 1.1//EN'  'http://www.w3.org/Graphics/SVG/1.1/DTD/svg11.dtd'><svg height="512px" style="enable-background:new 0 0 512 512;" version="1.1" viewBox="0 0 512 512" width="512px" xml:space="preserve" xmlns="http://www.w3.org/2000/svg" xmlns:xlink="http://www.w3.org/1999/xlink"><g id="map_pin_folded_tourist_info_address_street_city"><g><path d="M431.772,276.466l-47.226-28.207c-4.604,9.303-9.178,18.32-13.571,26.838l35.952,21.474    l50.343,147.798l-71.485-42.695l-22.334-112.135c-4.006,7.615-7.763,14.642-11.135,20.882l19.42,97.505L263.5,472.576V306.93    l8.184-4.889c-4.285-8.014-9.015-16.983-13.976-26.596L256,276.466l-87.885-52.495l-87.888,52.495L0,512l128.003-76.453L256,512    l127.996-76.453L512,512L431.772,276.466z M127.59,400.851l-72.86,43.517l50.342-147.797l49.132-29.346L127.59,400.851z     M248.5,472.576l-107.154-64.004l29.484-148.035l77.67,46.393V472.576z" style="fill:#0B72B5;"/><path d="M413.299,99.046C413.299,44.345,368.957,0,314.252,0c-54.702,0-99.047,44.345-99.047,99.046    c0,54.703,99.047,228.6,99.047,228.6S413.299,153.749,413.299,99.046z M255.333,99.046c0-32.539,26.376-58.918,58.919-58.918    s58.925,26.38,58.925,58.918c0,32.546-26.382,58.919-58.925,58.919S255.333,131.592,255.333,99.046z" style="fill:#E2001A;"/></g></g><g id="Capa_1"/></svg>